<svg width="160" height="110" viewBox="0 0 160 110" fill="none" xmlns="http://www.w3.org/2000/svg">
<path d="M159.655 -2H0.875977V84.075C0.875977 86.4029 2.42168 88.4328 4.65642 89.066L73.766 108.676C78.012 109.886 82.5001 109.886 86.7462 108.676L155.874 89.066C158.109 88.4328 159.655 86.3843 159.655 84.075V-2Z" fill="#9E233B"/>
<path d="M139.473 54.4998C135.564 54.4998 131.771 57.5404 131.771 62.7594V73.1974H136.225V67.7515H139.473C143.382 67.7515 146.566 64.7822 146.566 61.1256C146.566 57.4691 143.382 54.4998 139.473 54.4998ZM139.473 63.5893H136.244C136.244 61.6054 136.841 58.662 139.473 58.662C140.932 58.662 142.112 59.7642 142.112 61.1256C142.112 62.4871 140.932 63.5893 139.473 63.5893Z" fill="white"/>
<path d="M21.6669 54.4998C17.7575 54.4998 13.9648 57.5404 13.9648 62.7594V73.1974H18.4188V67.7515H21.6669C25.5763 67.7515 28.7595 64.7822 28.7595 61.1256C28.7595 57.4691 25.5763 54.4998 21.6669 54.4998ZM21.6669 63.5893H18.4383C18.4383 61.6054 19.0347 58.662 21.6669 58.662C23.1256 58.662 24.3055 59.7642 24.3055 61.1256C24.3055 62.4871 23.1256 63.5893 21.6669 63.5893Z" fill="white"/>
<path d="M104.937 54.5971H100.457L96.859 66.0723L93.2608 54.5971H88.781L84.891 73.1909H89.3709L91.465 63.1614L94.6158 73.1909H99.0957H99.0892H99.1022L102.247 63.1549L104.347 73.1909H108.827L104.937 54.5971Z" fill="white"/>
<path d="M123.725 54.5971L116.127 65.8584V54.5971H111.654V73.1974H116.127V73.1909L123.725 62.0398V73.1974H128.205V54.5971H123.725Z" fill="white"/>
<path d="M77.5845 54.5971L69.9926 65.8584V54.5971H65.5128V73.1974H69.9926V73.1909L77.5845 62.0398V73.1974H82.0644V54.5971H77.5845Z" fill="white"/>
<path d="M46.9838 58.5129H52.7473V73.1974H57.2207V58.5129H62.5823V54.5906H46.9838V58.5129Z" fill="white"/>
<path d="M37.4664 54.5971C37.5378 54.9342 37.5572 55.2778 37.5183 55.5955C37.3368 57.0153 36.1503 58.2017 33.006 61.3266C29.8616 64.4515 27.6509 69.0611 31.1064 72.3156C33.4469 74.5199 38.3222 74.1958 41.6481 69.8261L42.5687 73.1909H47.0551L41.862 54.5971H37.4664ZM33.8294 68.9768C32.6883 67.6737 35.1519 64.9443 37.4924 62.4871C37.9981 61.9555 38.5686 61.3266 39.1132 60.594L40.5395 65.7935C38.5297 68.7045 35.2686 70.6171 33.8294 68.9703V68.9768Z" fill="white"/>
<path d="M68.4237 24.904L68.4367 23.3156V12.9101H92.1198V24.7614L92.1393 25.1569C92.3856 24.7679 93.5072 24.3205 93.9416 24.0806C94.0064 24.0417 94.8946 23.6203 96.0292 23.7046C96.8007 23.763 97.5398 23.8797 98.402 24.0936C99.5431 24.3659 100.827 24.6836 102.59 24.6836C103.699 24.6836 104.645 24.4696 105.346 24.2427C105.365 24.4178 105.371 24.6252 105.371 24.8781C105.371 26.259 103.874 27.802 103.349 28.2364L102.571 28.8782L103.232 29.6367C103.913 30.4147 104.691 30.9593 105.326 31.3289C104.704 32.1133 103.874 33.4165 99.8024 32.7746L99.8154 33.6758C99.8154 34.4862 99.4134 35.0502 99.4134 35.0502L98.6678 36.0486L99.8089 36.5349C99.8932 36.5738 100.613 36.9303 100.613 37.7926C100.613 38.7392 98.4798 41.3908 94.4667 43.9063C91.8216 45.566 86.5248 48.1528 80.3982 48.1528C74.2716 48.1528 68.8581 45.566 66.2129 43.9063C62.2063 41.3908 60.0669 38.7392 60.0669 37.7926C60.0669 36.9044 60.8384 36.5543 60.8708 36.5349L62.0118 36.0292L61.2663 35.0502C61.2663 35.0502 60.8643 34.4797 60.8643 33.6758V32.7746C56.8317 33.4035 55.9889 32.1263 55.3666 31.3418C55.3666 31.3353 55.3536 31.3289 55.3536 31.3224C55.9889 30.9593 56.7669 30.4083 57.4477 29.6303L58.1154 28.8717L57.3374 28.2299C56.7734 27.7631 55.3147 26.246 55.3147 24.8716C55.3147 24.6188 55.3276 24.4048 55.3406 24.2362C56.0408 24.4632 56.9873 24.6771 58.096 24.6771C59.8529 24.6771 61.1431 24.3659 62.2841 24.0871C63.1399 23.8797 63.879 23.6981 64.657 23.6981C66.0184 23.6981 66.6473 24.1066 66.6538 24.1066C67.166 24.3465 68.106 24.7614 68.4302 25.0466V24.8975L68.4237 24.904Z" fill="white"/>
<path fill-rule="evenodd" clip-rule="evenodd" d="M100.794 28.8263L100.71 28.6383L100.905 28.58C100.905 28.58 100.93 28.5541 100.989 28.5281C101.449 28.3336 103.245 27.4065 103.679 25.481C103.297 25.5523 102.571 25.6366 101.747 25.6366C100.34 25.6366 99.381 25.3903 98.5641 25.1504C97.7278 24.891 97.0665 24.6706 96.2237 24.6706C95.3808 24.6706 94.4538 24.904 93.773 25.2671C93.0728 25.6431 92.6579 26.1423 92.6579 26.6026C92.6579 26.8619 92.7357 27.0111 92.8524 27.1148C92.9885 27.2185 93.1766 27.2963 93.4489 27.2963C94.3435 27.2963 95.1345 26.6285 96.2237 26.6026C96.7423 26.6026 97.2026 26.7647 97.5073 27.05C97.8315 27.3222 97.9936 27.7242 97.9936 28.1715C97.9936 28.58 97.9417 28.8458 97.8834 29.0857C97.851 29.3256 97.7991 29.546 97.7991 29.9155C97.7991 30.2851 97.851 30.6352 97.9352 30.9399C97.9871 30.9658 98.0649 31.0112 98.1557 31.0695C98.6743 31.3353 99.8672 31.8735 101.151 31.8735C102.013 31.8735 102.636 31.6854 103.025 31.4974C103.18 31.4196 103.29 31.3678 103.375 31.3094C102.778 30.9399 101.3 29.9933 100.788 28.8199M92.632 32.8394C92.632 32.1652 92.8718 31.7373 93.6304 31.2057C94.3435 30.713 95.5689 30.1813 97.4231 29.4163C97.4166 29.5719 97.3906 29.734 97.3906 29.922C97.3906 30.8361 97.7148 31.5558 98.013 32.1457C98.3113 32.7357 98.59 33.2155 98.5835 33.6174C98.5835 34.0194 98.3372 34.3111 98.039 34.4991C97.7472 34.6807 97.4166 34.765 97.2545 34.7909C96.5997 33.8054 96.1134 32.7941 95.7893 32.1652C95.6531 31.8735 95.3549 31.7373 95.0502 31.7438C94.3954 31.7632 93.5007 32.256 92.6255 33.0015V32.8394M99.0698 37.2869C97.4425 36.2172 96.3274 34.1231 95.6985 32.8394C94.3954 34.953 86.2849 39.2643 80.3852 39.2643C74.4855 39.2643 66.4074 34.9789 65.0978 32.8394C64.443 34.1231 63.3344 36.2172 61.7006 37.2869C61.4737 37.449 61.4283 37.5527 61.4219 37.6629C61.4219 37.8185 61.5386 38.0649 61.7525 38.3826C63.5937 41.0861 71.2439 47.0571 80.3852 47.0571C85.4745 47.0571 89.8507 45.3196 93.0858 43.3617C96.3209 41.4038 98.4474 39.2124 99.0114 38.3826C99.2254 38.0649 99.3615 37.8185 99.3421 37.6629C99.3421 37.5527 99.3097 37.449 99.0633 37.2869M68.1384 32.8394C68.1384 32.8913 68.1384 32.9497 68.1384 33.0015C67.2697 32.2495 66.3945 31.7632 65.7202 31.7438C65.422 31.7438 65.1238 31.8799 64.9876 32.1652C64.6635 32.7876 64.1707 33.799 63.5224 34.7909C63.3603 34.765 63.0297 34.6807 62.7379 34.4991C62.4332 34.3111 62.1934 34.0194 62.1934 33.6174C62.1934 33.2155 62.4656 32.7357 62.7639 32.1457C63.0621 31.5558 63.3863 30.8361 63.3863 29.922C63.3863 29.734 63.3603 29.5719 63.3603 29.4163C65.2145 30.1813 66.4334 30.7194 67.166 31.2057C67.9115 31.7438 68.1514 32.1717 68.1514 32.8394M62.8417 30.9399C62.926 30.6416 62.9843 30.2916 62.9843 29.9155C62.9843 29.5395 62.9519 29.3256 62.9 29.0857C62.8482 28.8458 62.7898 28.58 62.7898 28.1715C62.7898 27.7242 62.9584 27.3222 63.2761 27.05C63.5808 26.7582 64.0411 26.6026 64.5597 26.6026C65.6489 26.6221 66.4398 27.3028 67.3345 27.2963C67.6068 27.2963 67.7948 27.225 67.931 27.1148C68.0412 27.0175 68.1255 26.8684 68.1255 26.6026C68.1449 26.1423 67.717 25.6366 67.0298 25.2671C66.3296 24.9105 65.4285 24.6706 64.5597 24.6706C63.691 24.6706 63.0556 24.891 62.2193 25.1504C61.4024 25.3967 60.4429 25.6431 59.0296 25.6366C58.2127 25.6366 57.4801 25.5523 57.0976 25.481C57.5319 27.4065 59.3278 28.3336 59.7881 28.5281C59.8464 28.5541 59.8918 28.58 59.8918 28.58L60.0863 28.6383L60.002 28.8263C59.4704 29.9998 57.9922 30.9399 57.3958 31.3159C57.4801 31.3678 57.6097 31.4261 57.7459 31.5039C58.1478 31.6919 58.7508 31.8799 59.6195 31.8799C60.8967 31.8799 62.0961 31.3483 62.6083 31.076C62.712 31.0242 62.7768 30.9723 62.8287 30.9464M67.4577 27.6788C67.4253 27.6788 67.3734 27.6788 67.3216 27.6788C66.2324 27.6788 65.4479 26.9851 64.5468 27.0046C63.6456 27.0175 63.1853 27.5038 63.1788 28.178C63.1788 28.5281 63.2112 28.7486 63.2631 28.9625C64.4106 29.4423 65.3312 29.8183 66.0638 30.1684C66.2583 29.7081 66.7186 28.7226 67.4577 27.6788ZM65.3312 32.3532C65.4155 32.2041 65.4998 32.1457 65.7137 32.1457C66.2065 32.1393 67.1595 32.6579 68.0542 33.4618C67.4318 33.5721 67.0169 33.8638 66.8548 33.9999C66.7964 33.9675 66.7446 33.9157 66.6862 33.8638C66.2259 33.5332 65.8758 33.2155 65.6554 32.9497C65.409 32.6839 65.3053 32.4699 65.3053 32.3856C65.3053 32.3597 65.3247 32.3597 65.3247 32.3532M95.0308 32.1457C94.538 32.1393 93.585 32.6579 92.6903 33.4618C93.3127 33.5721 93.7211 33.8638 93.8832 33.9999C93.9416 33.9675 93.9934 33.9157 94.0518 33.8638C94.5121 33.5332 94.8622 33.2155 95.0891 32.9497C95.329 32.6839 95.4392 32.4699 95.4327 32.3856C95.4327 32.3597 95.4133 32.3597 95.4133 32.3532C95.3484 32.2041 95.2447 32.1457 95.0308 32.1457ZM97.4814 28.9625C96.3339 29.4423 95.4133 29.8183 94.6807 30.1684C94.4862 29.7081 94.0259 28.7226 93.2933 27.6788C93.3257 27.6788 93.3775 27.6788 93.4294 27.6788C94.5186 27.6788 95.303 26.9851 96.2042 27.0046C97.1054 27.0175 97.5657 27.5038 97.5916 28.178C97.5916 28.5281 97.5398 28.7486 97.4879 28.9625" fill="#9E233B"/>
<path fill-rule="evenodd" clip-rule="evenodd" d="M90.9528 31.7697C90.9528 37.2091 82.6349 35.2771 80.262 38.3826C77.8957 35.2771 69.5777 37.2091 69.5777 31.7697V14.2392H90.9528V31.7762V31.7697Z" fill="#9E233B"/>
<path d="M80.6056 15.9377V16.8908H80.3074V15.9377C79.8666 16.0155 79.5294 16.3462 79.5294 16.8519C79.5294 16.8973 79.5294 16.9426 79.5359 16.988C79.7952 17.0982 80.1129 17.1631 80.4565 17.1631C80.8001 17.1631 81.1178 17.0982 81.3771 16.988C81.3771 16.9426 81.3771 16.988 81.3771 16.9426C81.3771 16.437 81.04 16.022 80.5927 15.9442" fill="white"/>
<path d="M79.3998 17.2409C79.3544 17.2668 78.9459 17.6623 78.8941 17.7206C78.8422 17.779 78.745 17.8244 78.8487 17.9151C78.9589 18.0059 79.2118 18.1939 79.2442 18.2263C79.2766 18.2587 79.4127 18.33 79.4646 18.33C79.5165 18.33 79.5165 18.1874 79.4646 18.0383C79.4127 17.8957 79.3544 17.6428 79.3933 17.578C79.4257 17.5132 79.4711 17.3446 79.4451 17.2863C79.4192 17.2344 79.3933 17.2344 79.3933 17.2344" fill="white"/>
<path d="M81.3836 17.377C81.3836 17.377 81.4485 17.3122 81.4809 17.2927C81.5133 17.2733 81.6365 17.3252 81.6948 17.403C81.7597 17.4808 82.0644 17.8568 82.0773 17.9022C82.0838 17.9475 81.9412 18.1031 81.7597 18.1939C81.5846 18.2847 81.3771 18.4208 81.3188 18.356C81.254 18.2912 81.2993 18.1096 81.3836 17.9994C81.4679 17.8892 81.5327 17.7401 81.5133 17.6882C81.4938 17.6363 81.3447 17.4419 81.3836 17.377Z" fill="white"/>
<path d="M80.4565 17.39C80.4565 17.39 80.3528 17.39 80.3528 17.403C80.3528 17.4159 80.3139 17.6363 80.3009 17.6428C80.288 17.6428 79.9638 17.6688 79.8925 17.6428C79.8212 17.6169 79.7174 17.5521 79.685 17.5715C79.6526 17.591 79.6396 17.7012 79.685 17.8373C79.7304 17.9735 79.7823 18.1485 79.8341 18.1745C79.8471 18.1809 79.9703 18.1485 80.0286 18.0967C80.0935 18.0448 80.1324 18.0059 80.1583 18.0253C80.1842 18.0383 80.3917 18.0902 80.4371 18.0902C80.5473 18.0902 80.6705 18.0318 80.7094 18.0448C80.7483 18.0578 80.9103 18.142 80.9492 18.155C80.9882 18.168 81.0919 18.0772 81.1243 17.9994C81.1567 17.9216 81.1632 17.6817 81.1243 17.6558C81.0854 17.6363 80.6121 17.6558 80.5992 17.6428C80.5862 17.6363 80.5667 17.39 80.5538 17.39H80.4565Z" fill="white"/>
<path d="M80.4176 18.4532C80.4954 18.4532 80.6381 18.356 80.6705 18.343C80.7029 18.33 80.7418 18.4273 80.7612 18.5181C80.7807 18.6088 80.6964 18.6672 80.651 18.6931C80.6056 18.719 80.5214 18.8163 80.4695 18.8293C80.4176 18.8357 80.2231 18.7255 80.1583 18.6672C80.087 18.6088 80.0092 18.5245 80.0221 18.4727C80.0286 18.4208 80.1 18.33 80.1453 18.33C80.1907 18.33 80.3333 18.4597 80.4176 18.4532Z" fill="white"/>
<path d="M78.4402 19.2831C78.4986 19.3674 78.8292 19.7564 78.8681 19.7758C78.907 19.7888 79.2118 19.8666 79.2571 19.9249C79.296 19.9833 79.3998 20.2167 79.4905 20.2231C79.5813 20.2361 81.0724 20.2231 81.1697 20.2231C81.2669 20.2231 81.3966 20.1129 81.442 20.0286C81.4874 19.9444 81.5976 19.7434 81.6624 19.7304C81.7272 19.7175 81.993 19.5489 82.0384 19.4905C82.0838 19.4322 82.2783 19.1858 82.3042 19.2182C82.3302 19.2442 82.6673 19.51 82.7127 19.5165C82.7645 19.523 83.0239 19.698 83.0239 19.7239C83.0239 19.7434 82.784 20.7872 82.7516 20.9168C82.7192 21.04 82.4858 21.6494 82.1097 21.7272C81.7597 21.805 81.0595 21.8439 81.0206 21.8504C80.9817 21.8634 80.7548 21.7726 80.8001 21.831C80.8585 21.9023 80.9882 22.032 81.0659 22.0255C81.1437 22.019 82.1875 21.9606 82.2718 21.9542C82.3561 21.9412 82.5117 21.9866 82.5117 22.1227C82.5117 22.2589 82.2005 23.3805 82.1486 23.5296C82.0968 23.6852 81.993 24.1844 81.9217 24.2038C81.8504 24.2298 80.6834 24.2946 80.45 24.2816C80.2167 24.2687 78.7968 24.2103 78.7125 24.2038C78.6283 24.1973 78.4338 24.139 78.356 23.938C78.2847 23.737 77.9799 22.2978 77.967 22.2589C77.954 22.22 77.9281 21.9801 77.9929 21.9736C78.0577 21.9736 78.142 21.9282 78.3106 22.0125C78.3884 22.0514 79.2636 22.032 79.4192 22.019C79.5748 22.006 79.9508 21.9671 79.9703 21.8893C79.9897 21.8115 79.9314 21.818 79.7758 21.818C79.6202 21.818 78.7255 21.7856 78.5699 21.7467C78.4143 21.7078 78.2717 21.7208 78.1291 21.429C77.9799 21.1373 77.6558 19.8731 77.6493 19.7888C77.6493 19.7045 77.6363 19.6137 77.7919 19.523C77.9475 19.4387 78.2458 19.3025 78.3041 19.2766C78.3624 19.2507 78.4078 19.2247 78.4402 19.2766" fill="white"/>
<path d="M83.374 20.0805C83.4647 20.0092 84.0288 20.9298 84.0482 21.0011C84.0677 21.0724 83.9834 21.4161 83.9445 21.4939C83.9056 21.5652 83.8278 21.7337 83.9056 21.9088C83.9899 22.0838 84.1519 22.6219 84.2751 22.7516C84.3983 22.8813 84.5798 23.3545 84.5993 23.4777C84.6187 23.6074 84.6706 24.917 84.7225 24.9948C84.7743 25.0726 84.8392 25.1374 84.8262 25.1958C84.8068 25.2541 84.6965 25.3838 84.6965 25.4227C84.6965 25.4616 84.729 25.5394 84.5798 25.5523C84.4372 25.5653 84.1714 25.5523 84.139 25.5523C84.1066 25.5523 84.0936 25.5199 84.1001 25.3708C84.1066 25.2282 84.1001 24.7614 83.9964 24.5799C83.8861 24.4048 83.5231 23.9186 83.4777 23.7565C83.4258 23.6009 83.4258 23.0563 83.374 22.985C83.3221 22.9137 82.9201 22.3626 82.9072 22.1162C82.9007 21.8764 83.2832 20.1389 83.374 20.0675" fill="white"/>
<path d="M77.3122 19.9184C77.364 19.9055 77.5456 20.9493 77.591 21.1502C77.6363 21.3512 77.6882 21.805 77.591 22.0255C77.4289 22.395 77.1242 23.0822 77.0593 23.1406C76.9945 23.1924 76.988 23.1989 76.988 23.2249C76.988 23.2443 76.9037 23.7889 76.8065 23.9121C76.7092 24.0353 76.1776 24.7419 76.1193 24.8197C76.0609 24.8975 75.7303 25.306 75.7432 25.3514C75.7562 25.3967 75.8794 25.5977 75.8794 25.6366C75.8794 25.6755 83.6203 25.6366 83.6203 25.6366V26.0062H75.847C75.847 26.0062 75.821 26.3174 75.7432 26.3498C75.6719 26.3757 74.6476 26.3887 74.6022 26.3498C74.5633 26.3109 74.4531 25.8311 74.5049 25.7468C74.5568 25.6625 74.8032 25.5329 74.8745 25.4551C74.9458 25.3773 75.2894 24.8586 75.3543 24.6901C75.4191 24.5215 75.6979 23.4647 75.7951 23.2832C75.8988 23.1017 76.2943 22.7516 76.2943 22.7516C76.2943 22.7516 76.3202 22.2135 76.4175 22.006C76.5212 21.7921 76.7157 21.5392 76.7157 21.5392C76.7157 21.5392 76.625 20.8196 76.7546 20.5473C76.8843 20.275 77.2668 19.9444 77.3057 19.9314" fill="white"/>
<path d="M87.9252 25.6301H85.5069V25.9932H87.9252V25.6301Z" fill="white"/>
<path d="M86.7258 26.2071H87.7242C87.7242 26.2071 87.815 26.7193 87.7955 26.8749C87.7696 27.024 87.6918 27.4454 87.7436 27.5167C87.7955 27.5881 87.9252 27.8409 87.8603 27.8993C87.6723 28.0678 87.3676 28.1715 86.8295 28.1586C86.2914 28.1521 85.6107 27.9706 85.6107 27.9706C85.6107 27.9706 85.7014 27.8344 85.8246 27.7955C85.9543 27.7631 86.5248 27.3287 86.635 26.9203C86.7452 26.5054 86.7258 26.2071 86.7258 26.2071Z" fill="white"/>
<path d="M82.5247 25.4227C82.4274 25.1763 82.2783 24.891 82.2653 24.8586C82.2005 24.7419 82.0384 24.6188 81.993 24.6188H79.5359C79.2636 24.6188 78.3624 24.6512 78.2782 24.6706C78.2458 24.6706 78.0513 25.0531 77.8957 25.4227H82.5247Z" fill="white"/>
<path d="M82.7775 26.2071H77.5974C77.3965 26.7323 77.176 27.3482 77.2214 27.413C77.3316 27.5686 79.2312 27.99 80.45 27.977C81.6689 27.9641 83.2119 27.3482 83.2054 27.2833C83.2054 27.2509 82.959 26.6804 82.7775 26.2071Z" fill="white"/>
<path d="M83.9445 25.8441C83.9769 25.7144 84.2816 25.7663 84.4113 25.7792C84.5928 25.7922 84.904 25.9219 84.904 25.9219C84.904 25.9219 84.8716 25.6755 84.891 25.5523C84.9105 25.4356 84.917 25.2541 85.0207 25.2671C85.1244 25.28 85.2541 25.2736 85.2282 25.4356C85.2087 25.5912 85.1763 25.8052 85.2022 25.87C85.2282 25.9348 85.2865 26.0775 85.2087 26.1682C85.1374 26.2525 85.0142 26.3433 84.8456 26.3498C84.6771 26.3498 84.2751 26.3109 84.1584 26.2331C84.0417 26.1618 83.8797 26.1034 83.9445 25.8376" fill="white"/>
<path d="M77.4418 27.9252C77.4418 27.9252 78.3754 28.1586 78.5894 28.1975C78.7968 28.2364 79.1534 28.2429 79.1729 28.2947C79.1923 28.3466 79.1534 28.4633 79.0562 28.6124C78.9654 28.7615 78.544 29.4293 78.544 29.9544C78.544 30.4796 78.3495 30.8556 78.3106 30.9334C78.2717 31.0112 78.1615 31.3224 77.9929 31.3807C77.8243 31.4326 77.202 31.3094 77.1501 31.1538C77.0917 30.9982 77.0528 30.2332 77.1436 30.0646C77.2279 29.8961 77.5974 29.6821 77.591 29.5914C77.591 29.5006 77.6623 29.0338 77.6752 28.943C77.6882 28.8588 77.6493 28.7291 77.5585 28.6189C77.4678 28.5087 77.377 28.1326 77.4354 27.9252" fill="white"/>
<path d="M76.6898 31.4067C76.7481 31.4585 76.8454 31.6465 77.0788 31.7049C77.3122 31.7568 77.9281 31.7827 78.0253 31.7438C78.1226 31.6984 78.4014 31.6595 78.4532 31.7957C78.5116 31.9383 78.3754 32.0939 78.0966 32.1652C77.8179 32.2365 77.4094 32.23 77.1501 32.1652C76.8908 32.0939 76.5018 31.9513 76.4499 31.6984C76.3916 31.4456 76.6314 31.3548 76.6898 31.4067Z" fill="white"/>
<path d="M76.8973 32.3791C77.0269 32.3791 77.5715 32.444 77.6298 32.5607C77.6947 32.6709 77.6947 32.9691 77.6688 33.1117C77.6234 33.3516 77.4159 33.3905 77.4289 33.5137C77.4418 33.6369 77.4743 34.2658 77.3965 34.376C77.3251 34.4862 77.189 34.551 77.0139 34.5056C76.8389 34.4538 76.2489 34.1361 76.1646 33.8249C76.0804 33.5137 76.3851 33.4035 76.5796 33.2673C76.7676 33.1312 76.8973 32.8913 76.8778 32.7552C76.8519 32.619 76.8324 32.3856 76.9037 32.3856" fill="white"/>
<path d="M81.2993 28.2169C81.2993 28.2169 82.4598 28.1067 82.8229 27.8733C82.9266 27.8085 82.9007 28.2299 82.9072 28.3855C82.9072 28.5411 82.8618 29.2607 83.0822 29.5201C83.2962 29.7794 83.5685 30.0387 83.5814 30.2138C83.5944 30.3953 83.6463 31.1409 83.6009 31.1927C83.5555 31.2446 83.0693 31.4715 82.8812 31.4391C82.6932 31.4067 82.57 31.2835 82.4469 31.1214C82.3237 30.9528 82.1811 30.6416 82.1681 30.486C82.1551 30.3305 82.194 30.0322 82.1033 29.9285C82.019 29.8248 81.8699 29.4812 81.8569 29.358C81.8439 29.2348 81.805 29.1894 81.6689 29.0662C81.5327 28.943 81.3188 28.366 81.2929 28.2234" fill="white"/>
<path d="M82.4598 31.653C82.5117 31.666 82.9461 31.8605 83.3416 31.7049C83.7435 31.5428 84.0028 31.2705 84.0806 31.2446C84.1519 31.2186 84.2751 31.3029 84.2622 31.4261C84.2427 31.5558 83.9445 31.8281 83.5166 31.9642C83.0887 32.1004 82.596 32.0679 82.4598 31.9642C82.3237 31.8605 82.3431 31.6271 82.4598 31.653Z" fill="white"/>
<path d="M83.3156 32.3402C83.3675 32.2884 83.4647 32.2624 83.6203 32.1846C83.7759 32.1133 83.9121 32.1068 84.0158 32.2624C84.1195 32.418 84.2362 32.9302 84.4372 33.0793C84.6382 33.2284 84.8197 33.3711 84.8003 33.5137C84.7808 33.6628 84.7419 33.9027 84.3918 34.0064C84.0417 34.1102 83.7889 34.2852 83.6268 34.0064C83.4712 33.7276 83.186 33.2803 83.2573 33.1442C83.3286 33.008 83.4712 32.7357 83.4129 32.619C83.348 32.5023 83.2573 32.3986 83.3221 32.3338" fill="white"/>
<path d="M81.5068 18.7839C81.3771 18.7839 81.2345 18.8098 81.1956 18.8811C81.1502 18.9524 80.839 19.3998 80.4565 19.3868C80.3333 19.3803 79.9638 19.2831 79.8017 19.0886C79.6396 18.8941 79.6267 18.7515 79.5618 18.7644C79.4711 18.7774 79.0237 18.9395 78.9265 18.9978C78.8292 19.0562 78.6801 19.1469 78.6996 19.1923C78.719 19.2312 78.8876 19.4905 78.9135 19.5035C78.9913 19.5748 79.309 19.6332 79.3544 19.685C79.3998 19.7304 79.5943 19.9314 79.6461 19.9573C79.698 19.9897 81.1697 19.9573 81.2021 19.9444C81.2345 19.9379 81.3123 19.8147 81.3188 19.7628C81.3188 19.711 81.3771 19.6202 81.4355 19.5878C81.4744 19.5683 81.5133 19.5359 81.5457 19.51C81.5781 19.4776 82.0773 19.121 82.0644 19.0821C82.0514 19.0367 81.6235 18.7968 81.4938 18.7968" fill="white"/>
<path d="M70.0704 39.1346C70.0899 38.979 70.0834 38.8494 70.0315 38.6938C69.9797 38.5641 69.8954 38.415 69.7852 38.2789C69.6555 38.1492 69.5194 38.026 69.3573 37.9223C69.1952 37.8185 69.0072 37.7472 68.8257 37.7148C68.6377 37.6759 68.4561 37.6759 68.2746 37.7083C68.1125 37.7407 67.9569 37.8185 67.8013 37.9223C67.7495 38.0066 66.2583 40.2433 66.2583 40.2433L66.1416 40.4183L66.8548 40.8721L66.9844 40.6776L67.6522 39.6727L68.2292 39.4782C68.2616 39.5301 68.2876 39.582 68.3135 39.6338C68.3394 39.6663 68.3459 39.7116 68.3913 39.7441C68.4043 39.7959 68.4432 39.8219 68.4756 39.8478C68.5015 39.8737 68.5339 39.9191 68.5858 39.945C68.7414 40.0423 68.9035 40.0942 69.085 40.0747C69.2471 40.0682 69.4027 40.0163 69.5648 39.9256C69.7204 39.8219 69.8306 39.7116 69.9278 39.556C70.0251 39.4199 70.0769 39.2708 70.0834 39.1346M68.7608 39.4199C68.6312 39.4523 68.5534 39.4523 68.4691 39.4004C68.4172 39.3745 68.3848 39.3226 68.3589 39.2189L67.8143 39.4069L68.3265 38.6225C68.4821 38.4085 68.6312 38.227 68.7673 38.1168C68.9164 38.0066 69.0526 38.0066 69.2147 38.0844C69.3508 38.1816 69.4286 38.3113 69.3832 38.4733C69.3573 38.6484 69.2795 38.8299 69.1304 39.0244C69.0007 39.2319 68.871 39.3615 68.7608 39.4134" fill="white"/>
<path d="M93.6239 37.06C93.4942 36.9757 93.3646 36.9303 93.209 36.9109C93.0664 36.9109 92.8978 36.9109 92.7292 36.9628C92.5542 37.0276 92.3856 37.0989 92.2235 37.2026C92.0615 37.3064 91.9188 37.449 91.8151 37.6046C91.6984 37.7537 91.6271 37.9223 91.5752 38.1038C91.5428 38.2659 91.5428 38.4409 91.5752 38.6225C91.6271 38.7067 93.0404 40.9888 93.0404 40.9888L93.1571 41.1704L93.8638 40.7101L93.7406 40.5091L93.1052 39.4847L93.1701 38.8753C93.2349 38.8753 93.2933 38.8688 93.3451 38.8623C93.384 38.8494 93.4294 38.8623 93.4748 38.8364C93.5202 38.8494 93.5656 38.817 93.6045 38.804C93.6369 38.791 93.6952 38.7781 93.7406 38.7456C93.8962 38.6419 94.0064 38.5187 94.0648 38.3437C94.1296 38.1946 94.149 38.026 94.1296 37.851C94.0972 37.663 94.0453 37.5203 93.9481 37.3647C93.8703 37.2156 93.7471 37.1119 93.6304 37.047M93.3386 38.3696C93.3192 38.4993 93.2803 38.5771 93.2025 38.6289C93.1571 38.6678 93.0923 38.6678 92.995 38.6549L92.9367 39.2254L92.4375 38.4344C92.3013 38.2011 92.2041 37.9936 92.1587 37.825C92.1198 37.6435 92.1781 37.5138 92.3143 37.4036C92.4634 37.3193 92.6125 37.2999 92.7357 37.4101C92.8848 37.5074 93.021 37.6565 93.1312 37.8704C93.2673 38.0779 93.3322 38.2464 93.3322 38.3696" fill="white"/>
<path d="M72.0867 43.2709L72.1516 42.7263L72.5081 39.7894C72.5146 39.7116 72.5276 39.6338 72.5341 39.5625L71.8079 39.2578C71.8015 39.3162 71.7885 39.3745 71.769 39.4134C71.7626 39.4329 71.7496 39.4588 71.7366 39.4782C71.7172 39.5366 71.6912 39.5885 71.6912 39.6144C71.6459 39.7246 71.5681 39.8024 71.4903 39.8867C71.4125 39.9645 71.2828 40.0488 71.1078 40.146C70.9522 40.2497 70.8225 40.334 70.7706 40.3664C70.5437 40.5285 70.3557 40.6647 70.1547 40.8008C69.9732 40.9434 69.8176 41.099 69.6685 41.2611C69.5194 41.4232 69.3962 41.5853 69.3249 41.7474C69.2471 41.9354 69.2341 42.1104 69.2925 42.2466C69.3508 42.3957 69.461 42.4994 69.6231 42.5707C69.7592 42.642 69.9148 42.6356 70.0704 42.6031C70.2325 42.5707 70.4076 42.5059 70.5696 42.4022C70.7447 42.292 70.9068 42.1753 71.0559 42.0197C71.2309 41.8576 71.3606 41.702 71.4838 41.5334L71.3541 42.5578L71.3023 42.9727L71.2763 43.1996L72.0608 43.5238L72.0867 43.2839V43.2709ZM71.1661 41.4751C70.9911 41.6372 70.8355 41.7538 70.6539 41.8641C70.4919 41.9483 70.3363 41.9613 70.2325 41.9159C70.1288 41.89 70.0704 41.8381 70.064 41.7668C70.038 41.6955 70.0315 41.6371 70.0575 41.5594L70.1093 41.4297C70.1871 41.2871 70.3298 41.125 70.4919 40.9629C70.6669 40.8008 70.8679 40.6387 71.0753 40.4961C71.2828 40.3535 71.4903 40.2173 71.6653 40.1136L71.5421 41.0018C71.4449 41.1574 71.3152 41.3 71.1596 41.4816" fill="white"/>
<path d="M77.3705 41.1055C77.3446 41.0537 77.2862 41.0083 77.2344 41.0018C77.1306 40.9759 77.0529 40.9564 77.001 40.9759C76.9686 40.9759 76.8908 40.9759 76.787 40.9564C76.7028 40.937 76.599 40.911 76.5147 40.8851C76.4694 40.8851 76.4369 40.8592 76.411 40.8592C76.3851 40.8592 74.68 40.3989 74.6541 40.3989C74.6281 40.3989 74.6022 40.3794 74.5503 40.3729C74.466 40.347 74.3623 40.3211 74.278 40.3016C74.1743 40.2757 74.1224 40.2303 74.09 40.2044C74.0382 40.1784 73.9798 40.1525 73.8761 40.1266C73.7983 40.1071 73.7464 40.1071 73.6945 40.133C73.6427 40.159 73.6168 40.2108 73.5908 40.2627C73.5649 40.3729 73.5454 40.5285 73.5454 40.7101C73.526 40.8981 73.5325 41.0731 73.5584 41.2287C73.5843 41.3649 73.6362 41.4621 73.6945 41.4621C73.7464 41.488 73.7788 41.4816 73.8242 41.4556C73.8501 41.4102 73.902 41.3519 73.9539 41.2482C74.0057 41.1444 74.0576 41.0861 74.0771 41.0407C74.1873 40.8527 74.3105 40.723 74.3947 40.6712C74.4985 40.6193 74.6022 40.6128 74.7059 40.6387C74.7319 40.6582 75.056 40.736 75.056 40.736L74.2132 43.9257L74.1549 44.1526L74.9653 44.3666L75.0236 44.1461L75.8859 40.9564L76.0998 41.0083C76.2295 41.0537 76.3138 41.0796 76.3916 41.125C76.4499 41.1574 76.5018 41.2287 76.5342 41.313C76.5861 41.4102 76.5925 41.5399 76.5925 41.702C76.5925 41.7992 76.5925 41.8835 76.5925 41.9872C76.5925 42.091 76.5925 42.1623 76.6185 42.1947C76.6185 42.2271 76.6509 42.2466 76.7028 42.2725C76.7611 42.2725 76.8584 42.2271 76.9426 42.1169C77.0464 42.0067 77.1436 41.8576 77.2214 41.6955C77.3187 41.5334 77.3705 41.3843 77.3965 41.2741C77.4224 41.2222 77.3965 41.1704 77.3705 41.1185" fill="white"/>
<path d="M81.0789 41.4297L80.2426 41.3778L80.1972 42.0715V42.1688L78.9006 43.5367L78.9784 42.3373H78.9719L79.0367 41.2871L78.2004 41.2352L78.1874 41.4621L78.1355 42.2336L77.9735 44.7426L77.9605 44.976L78.8033 45.0279L78.8357 44.4898L78.8746 43.8868L80.1713 42.5253L80.0092 44.8787H80.0027L79.9897 45.1057L80.839 45.1575L80.852 44.9306L80.8844 44.4703L81.027 42.266L81.0789 41.4297Z" fill="white"/>
<path d="M90.0581 38.817L89.3061 39.18L89.6108 39.8024L89.6497 39.8867L89.1959 41.7214L88.6707 40.6323L88.6643 40.6387L88.2104 39.6922L87.4584 40.0552L87.5556 40.2627L87.8928 40.9564L88.9819 43.2255H88.9754L89.0792 43.433L89.8442 43.0699L89.6043 42.5837L89.345 42.0326L89.8053 40.2173L90.8167 42.3373V42.3438L90.9139 42.5513L91.6789 42.1817L91.5817 41.9743L91.3807 41.5594L90.4277 39.569H90.4212L90.0581 38.817Z" fill="white"/>
<path d="M87.4584 43.8155L86.0061 40.7684C85.9737 40.6971 85.9413 40.6258 85.9089 40.5609L85.1309 40.7425C85.1309 40.8073 85.1374 40.8851 85.1374 40.9564L85.1568 41.3519L85.2735 44.1526L83.8797 41.2546C83.8472 41.1833 83.8148 41.112 83.7759 41.0407L82.972 41.2222C83.0109 41.2871 83.0368 41.3649 83.0563 41.4362C83.0822 41.488 83.0887 41.5399 83.0887 41.5658C83.1017 41.6177 83.1146 41.6825 83.1146 41.7474C83.1146 41.903 83.0757 42.091 83.0044 42.2984C82.959 42.4281 82.8618 42.6161 82.7386 42.8819C82.6349 43.1477 82.5376 43.3811 82.4663 43.5367C82.4145 43.7183 82.3691 43.9063 82.3496 44.1332C82.3302 44.3471 82.3431 44.5805 82.4015 44.8398C82.4339 44.989 82.4663 45.0732 82.5182 45.1186C82.57 45.1705 82.6219 45.1705 82.6738 45.164C82.6997 45.164 82.7256 45.1381 82.7775 45.1316C82.8099 45.1057 82.8812 45.0992 82.9396 45.0797C83.0109 45.0732 83.0628 45.0668 83.0952 45.0668C83.1989 45.0473 83.2573 45.0408 83.2832 45.0408C83.3351 45.0408 83.361 45.0149 83.3869 44.989C83.4323 44.963 83.4583 44.9306 83.4323 44.8593L83.3675 44.6C83.361 44.5351 83.3286 44.4379 83.2767 44.3342C83.2443 44.2304 83.2119 44.1267 83.186 44.0294C83.1535 43.9452 83.1276 43.8479 83.1017 43.7636C83.0368 43.4589 83.0239 43.1737 83.0693 42.8884C83.1146 42.5967 83.186 42.2855 83.3286 41.9613L84.5215 44.4768L84.6187 44.6778L85.5069 44.4768V44.1332L85.3838 41.3973L86.6285 43.9906C86.6609 44.0619 86.6934 44.1267 86.7258 44.198L87.5556 44.0165L87.4519 43.809L87.4584 43.8155Z" fill="white"/>
<path d="M50.2837 84.1151H50.6144C51.1136 84.1151 51.4637 83.4473 51.6646 83.0518C51.8397 82.7017 52.0407 82.196 52.2741 81.5542C52.689 80.4196 52.8511 79.7973 52.8511 79.4083C52.8511 79.1425 52.7409 79.0193 52.5788 78.935C52.4945 78.8961 52.3454 78.8702 52.2805 78.8572V78.8183H56.352V78.8572C56.2677 78.8637 56.1381 78.8831 56.0538 78.9091C55.8722 78.9674 55.6453 79.1036 55.5416 79.2916C55.3665 79.6028 55.2499 80.1214 55.1007 80.7179L54.6664 82.4748C54.5108 83.1102 54.4265 83.4149 54.4265 83.6159C54.4265 83.8493 54.5367 83.9595 54.7312 84.0502C54.8155 84.0956 54.9451 84.1151 55.0165 84.128H55.2499L54.9905 85.9239H54.9322C54.9062 85.3987 54.8673 84.9773 54.5886 84.6532C54.3617 84.3939 54.0894 84.2966 53.6744 84.2966H51.7749C51.3988 84.2966 51.0487 84.4068 50.744 84.6661C50.3939 84.9579 50.1605 85.3728 49.8947 85.9304H49.8364L50.2967 84.1345L50.2837 84.1151ZM51.0358 84.1151H52.9094C52.9613 84.1086 53.0196 84.0956 53.078 84.0827C53.2012 84.0373 53.3373 83.9595 53.4086 83.8233C53.5318 83.6094 53.6355 83.3241 53.7328 82.9157L54.2968 80.6271C54.5367 79.6417 54.5886 79.2981 54.4459 79.136C54.3617 79.0387 54.1931 78.9804 53.9273 78.9804C53.4864 78.9804 53.3114 79.1749 53.1363 79.5963C52.9807 79.9853 52.7733 80.6206 52.4037 81.6255C52.1768 82.2414 51.9823 82.7406 51.7878 83.1426C51.6193 83.4992 51.3729 83.9141 51.0293 84.1151" fill="white"/>
<path d="M58.297 81.8071C57.9728 82.0793 57.2726 82.4035 56.7021 82.598C56.6243 82.9286 56.5854 83.2658 56.5854 83.5445C56.5854 83.9465 56.7669 84.141 57.0068 84.141C57.5968 84.141 57.9922 83.6029 58.1867 83.2398L58.2645 83.2787C57.9728 83.8363 57.493 84.342 56.7734 84.342C56.2094 84.342 55.9047 83.8104 55.9047 83.188C55.9047 82.4035 56.2872 81.7552 56.8447 81.2236C57.2143 80.8735 57.5903 80.666 57.895 80.666C58.4266 80.666 58.6017 80.8929 58.6017 81.23C58.6017 81.4245 58.4914 81.619 58.297 81.7941M57.8172 80.7697C57.3569 80.7697 56.9355 81.6126 56.728 82.4813C57.0846 82.3581 57.5773 82.0988 57.7589 81.8848C57.9469 81.6579 58.0311 81.3467 58.0311 81.1263C58.0311 80.9253 57.9663 80.7697 57.8172 80.7697Z" fill="white"/>
<path d="M60.0734 84.3549C59.8075 84.3549 59.5288 84.2772 59.425 84.1993C59.3408 84.4587 59.2435 84.7245 59.1398 85.0227C59.0749 85.2107 59.0166 85.4701 59.0166 85.6386C59.0166 85.7812 59.0749 85.8979 59.224 85.9822C59.2889 86.0211 59.438 86.06 59.5677 86.073V86.1054H57.5449L57.5644 86.073C57.7394 86.0471 57.908 86.0082 58.0117 85.9304C58.2192 85.7877 58.3294 85.5479 58.4331 85.2172C58.5757 84.7764 59.5482 81.8784 59.5871 81.7033C59.6325 81.5283 59.6714 81.3208 59.6714 81.23C59.6714 81.0291 59.6066 80.9707 59.5028 80.9707C59.3667 80.9707 59.0685 81.2365 58.7119 81.7941L58.647 81.7552C59.0036 81.055 59.5223 80.679 59.8464 80.679C60.1317 80.679 60.2095 80.8735 60.2095 81.1717C60.2095 81.2625 60.1771 81.4375 60.1511 81.5542H60.1771C60.4948 80.8475 60.9745 80.679 61.2209 80.679C61.7071 80.679 62.1415 80.8735 62.1415 81.8784C62.1415 83.0259 61.1496 84.3614 60.0669 84.3614M61.0718 80.8929C60.6957 80.8929 60.3651 81.3143 60.1706 81.8978L59.4963 83.9595C59.613 84.1345 59.8529 84.2318 60.0215 84.2318C60.2095 84.2318 60.4105 84.141 60.5726 84.0049C61.0458 83.6029 61.4802 82.3063 61.4802 81.5607C61.4802 81.0939 61.3376 80.8864 61.0718 80.8864" fill="white"/>
<path d="M66.6279 82.5915H65.8629L65.3312 84.2836H64.6505L65.2016 82.5915H64.4625C64.1383 83.4668 63.4705 84.3549 62.5564 84.3549C62.2647 84.3549 62.1156 84.128 62.1156 83.8233C62.1156 83.4992 62.3814 83.0648 62.6083 82.786L62.6666 82.8055C62.5564 83.0453 62.4332 83.4797 62.4332 83.7196C62.4332 83.9854 62.4916 84.1929 62.7185 84.1929C63.088 84.1929 63.5678 83.4927 63.8336 82.5202C63.9762 81.9886 64.0151 81.5023 64.0151 81.3403C64.0151 81.055 63.8725 80.9967 63.7753 80.9967C63.3409 80.9967 63.0038 81.4699 62.7768 81.8589L62.712 81.82C62.9973 81.256 63.6002 80.679 64.0411 80.679C64.4301 80.679 64.7088 80.9707 64.7088 81.4764C64.7088 81.7422 64.644 82.0858 64.5273 82.4424H65.2599L65.8175 80.7503H66.4658L65.9277 82.4424H66.6927C67.0233 81.5737 67.6911 80.679 68.6052 80.679C68.897 80.679 69.0461 80.9059 69.0461 81.2106C69.0461 81.5348 68.7803 81.9691 68.5534 82.2544L68.495 82.2349C68.6052 81.9951 68.7284 81.5607 68.7284 81.3208C68.7284 81.055 68.6701 80.8475 68.4432 80.8475C68.0801 80.8475 67.5939 81.5477 67.328 82.5202C67.1854 83.0518 67.1465 83.5381 67.1465 83.7001C67.1465 83.9854 67.2892 84.0438 67.3864 84.0438C67.8208 84.0438 68.1579 83.5705 68.3848 83.175L68.4496 83.2204C68.1644 83.7844 67.5614 84.3614 67.1206 84.3614C66.7316 84.3614 66.4528 84.0697 66.4528 83.564C66.4528 83.2982 66.5112 82.9546 66.6343 82.598" fill="white"/>
<path d="M71.3865 84.3549C71.0948 84.3549 70.9716 84.141 70.9716 83.8298C70.9716 83.564 71.0494 83.2463 71.1726 82.7795H71.1142C70.4789 83.9465 69.9343 84.3549 69.5064 84.3549C69.2147 84.3549 69.0591 84.141 69.0591 83.8168C69.0591 83.5121 69.2082 83.1231 69.4416 82.4554C69.6166 81.9497 69.8565 81.2819 69.8565 81.1328C69.8565 81.0226 69.8241 80.9837 69.7592 80.9837C69.6166 80.9837 69.3897 81.1328 69.0331 81.6904L68.9618 81.645C69.3184 80.9448 69.863 80.679 70.1353 80.679C70.3752 80.679 70.5243 80.7762 70.5243 81.0939C70.5243 81.3856 70.252 82.0923 70.0575 82.6693C69.8759 83.2009 69.6815 83.6937 69.6815 83.8752C69.6815 84.0178 69.7398 84.0632 69.837 84.0632C70.1288 84.0632 70.7966 83.3695 71.3995 81.8654C71.5421 81.5088 71.6848 81.1522 71.8144 80.7503H72.4692C72.2358 81.4829 71.8598 82.5591 71.7301 82.9611C71.5875 83.3954 71.5875 83.6159 71.5875 83.7715C71.5875 83.9271 71.6718 84.0113 71.7885 84.0113C72.1062 84.0113 72.5146 83.5899 72.761 83.188L72.8388 83.2269C72.5405 83.7326 71.9376 84.3485 71.38 84.3485" fill="white"/>
<path d="M74.868 81.846C74.868 81.7033 74.8745 81.5737 74.868 81.457C74.7448 81.833 74.5244 82.423 74.2521 83.0064C73.8501 83.8363 73.5779 84.3549 73.0722 84.3549C72.7999 84.3549 72.6378 84.1475 72.6378 83.8817C72.6378 83.6418 72.7934 83.4668 72.9555 83.4668C73.1175 83.4668 73.2537 83.551 73.2537 83.7585C73.2537 83.8557 73.1953 83.953 73.1953 84.0567C73.1953 84.1086 73.2278 84.1151 73.2602 84.1151C73.4871 84.1151 73.7788 83.6353 74.103 82.9416C74.492 82.0923 74.7513 81.3338 74.8161 81.1198C74.7708 81.0226 74.7189 80.9707 74.6346 80.9707C74.492 80.9707 74.2586 81.1263 73.8372 81.6839L73.7724 81.645C74.2067 80.9448 74.6541 80.6855 74.9977 80.6855C75.4774 80.6855 75.5487 81.042 75.5228 81.7033L75.458 83.4603L77.364 80.7633H78.0124C78.0124 80.7633 77.6623 81.9302 77.4289 82.6045C77.2538 83.1102 77.0528 83.7001 77.0528 83.8493C77.0528 83.9595 77.0853 83.9984 77.1501 83.9984C77.4224 83.9984 77.8179 83.6094 78.0642 83.2074L78.1485 83.2463C77.8503 83.752 77.3057 84.3614 76.7481 84.3614C76.4888 84.3614 76.3397 84.1929 76.3397 83.9206C76.3397 83.6288 76.612 82.9546 76.8065 82.3841C76.9037 82.0858 77.0723 81.6126 77.189 81.243L75.0431 84.2901H74.8032L74.868 81.8524V81.846Z" fill="white"/>
<path d="M80.9039 82.0534C81.0465 81.619 81.1048 81.3403 81.1048 81.1911C81.1048 81.0485 81.04 80.9642 80.9363 80.9642C80.7937 80.9642 80.5797 81.1198 80.2231 81.6839L80.1453 81.6385C80.5019 80.9383 80.9882 80.679 81.2604 80.679C81.5522 80.679 81.7337 80.854 81.7337 81.1523C81.7337 81.4116 81.6754 81.7746 81.4874 82.3646H81.5522C81.8439 82.3646 82.0514 82.1831 82.2524 81.8135L82.4793 81.3792C82.7127 80.9383 82.9137 80.666 83.2508 80.666C83.5101 80.666 83.6398 80.867 83.6398 81.1263C83.6398 81.3662 83.4842 81.5412 83.2702 81.5412C83.1146 81.5412 82.985 81.431 82.985 81.243C82.985 81.1263 83.0433 81.0745 83.0433 80.9707C83.0433 80.9189 83.0109 80.9124 82.9785 80.9124C82.9072 80.9124 82.7775 81.0809 82.5895 81.4375L82.3561 81.8589C82.1811 82.1766 82.0255 82.3452 81.8245 82.4035V82.4165C82.382 82.4165 82.6738 82.6499 82.6154 83.175L82.5571 83.7066C82.5247 83.9919 82.6414 84.0308 82.7256 84.0308C82.9072 84.0308 83.2249 83.739 83.4712 83.3371L83.549 83.376C83.2573 83.8687 82.7905 84.342 82.3496 84.342C82.019 84.342 81.8439 84.1151 81.9088 83.6094L81.993 83C82.0514 82.5786 81.8764 82.4683 81.5327 82.4683H81.4485C81.4485 82.4683 81.429 82.5008 81.429 82.5202C81.1048 83.5121 80.9687 83.8882 80.8196 84.2772H80.1518C80.4047 83.5445 80.7612 82.4554 80.8909 82.0469" fill="white"/>
<path d="M86.0191 84.3549C85.7857 84.3549 85.5523 84.2383 85.5523 83.7974C85.5523 83.7066 85.6107 83.4797 85.6496 83.3306H85.6301C85.481 83.6029 85.306 83.8298 85.1504 83.9854C84.891 84.2447 84.703 84.3549 84.4372 84.3549C84.0871 84.3549 83.6787 84.1216 83.6787 83.3306C83.6787 82.3905 84.6965 80.6725 85.7663 80.6725C86.0515 80.6725 86.2266 80.88 86.2655 81.1911H86.2849L86.4989 80.7503H87.0824L86.5313 82.4294C86.2979 83.1296 86.1812 83.6288 86.1812 83.7779C86.1812 83.9011 86.2395 83.9854 86.3498 83.9854C86.6739 83.9854 87.024 83.577 87.2639 83.1945L87.3482 83.2334C87.0499 83.739 86.5767 84.3485 86.0191 84.3485M85.7728 80.7762C85.481 80.7762 85.2735 80.9902 85.0337 81.3727C84.6512 81.9886 84.3659 83.162 84.3659 83.5251C84.3659 83.8882 84.502 84.0438 84.6771 84.0438C84.8327 84.0438 84.9753 83.9595 85.1763 83.7585C85.3319 83.6029 85.4745 83.4084 85.6171 83.1491C85.9089 82.611 86.1423 81.8006 86.1423 81.4375C86.1423 81.0485 86.0256 80.7697 85.7728 80.7697" fill="white"/>
<path d="M89.4747 83.8298C89.4747 83.4992 89.6303 82.799 89.9155 82.1571H89.8896C89.52 82.8314 89.0921 83.2723 88.567 83.2723C88.1715 83.2723 87.99 83.0583 87.99 82.7277C87.99 82.4813 88.0743 82.222 88.1975 81.8524C88.3725 81.3467 88.4114 81.23 88.4114 81.1198C88.4114 81.0096 88.379 80.9707 88.3142 80.9707C88.1715 80.9707 87.9446 81.1198 87.588 81.6774L87.5102 81.6385C87.8668 80.9383 88.4114 80.6725 88.6837 80.6725C88.9236 80.6725 89.0727 80.8151 89.0727 81.0874C89.0727 81.3273 88.9754 81.5672 88.8069 82.0664C88.6643 82.4878 88.6254 82.6434 88.6254 82.7795C88.6254 82.9027 88.7032 82.974 88.8199 82.974C89.2542 82.974 89.734 82.3841 90.0711 81.5023C90.11 81.3921 90.2073 81.1458 90.3369 80.7438H90.9917C90.7583 81.4764 90.4082 82.4943 90.2267 83.1231C90.1878 83.2593 90.11 83.5575 90.11 83.765C90.11 83.9141 90.1943 84.0049 90.311 84.0049C90.6287 84.0049 91.0371 83.5835 91.2835 83.1815L91.3613 83.2204C91.063 83.7261 90.4796 84.342 89.9609 84.342C89.6108 84.342 89.4682 84.128 89.4682 83.8168" fill="white"/>
<path d="M93.8638 81.8071C93.5396 82.0793 92.8394 82.4035 92.2689 82.598C92.1911 82.9286 92.1522 83.2658 92.1522 83.5445C92.1522 83.9465 92.3337 84.141 92.5736 84.141C93.1636 84.141 93.5591 83.6029 93.7536 83.2398L93.8314 83.2787C93.5396 83.8363 93.0599 84.342 92.3402 84.342C91.7762 84.342 91.4715 83.8104 91.4715 83.188C91.4715 82.4035 91.854 81.7552 92.4115 81.2236C92.7811 80.8735 93.1571 80.666 93.4618 80.666C93.9934 80.666 94.1685 80.8929 94.1685 81.23C94.1685 81.4245 94.0583 81.619 93.8638 81.7941M93.384 80.7697C92.9237 80.7697 92.5023 81.6126 92.2948 82.4813C92.6514 82.3581 93.1441 82.0988 93.3257 81.8848C93.5137 81.6579 93.598 81.3467 93.598 81.1263C93.598 80.9253 93.5331 80.7697 93.384 80.7697Z" fill="white"/>
<path d="M96.6451 81.6709C96.4311 81.6709 96.3339 81.5283 96.3339 81.3532C96.3339 81.3014 96.3663 81.2041 96.3793 81.1717C96.4052 81.0939 96.4635 81.0031 96.4635 80.9642C96.4635 80.8475 96.3728 80.7892 96.2237 80.7892C96.0162 80.7892 95.8087 80.9253 95.6142 81.2041C95.2253 81.7811 94.94 82.8184 94.94 83.5575C94.94 83.9595 95.1734 84.141 95.4133 84.141C95.9319 84.141 96.3468 83.6094 96.5478 83.2528L96.6321 83.3047C96.3404 83.8622 95.8476 84.3549 95.1345 84.3549C94.5704 84.3549 94.2593 83.8363 94.2593 83.2139C94.2593 82.4294 94.6158 81.7487 95.1086 81.2495C95.4586 80.8929 95.9579 80.6855 96.2561 80.6855C96.6256 80.6855 96.9887 80.8605 96.9887 81.2949C96.9887 81.4959 96.8914 81.6774 96.6451 81.6774" fill="white"/>
<path d="M101.19 84.3549C100.93 84.3549 100.781 84.1864 100.781 83.9141C100.781 83.6223 101.054 82.9416 101.248 82.3646C101.43 81.833 101.631 81.3338 101.631 81.1523C101.631 81.0096 101.566 80.9707 101.462 80.9707C101.177 80.9707 100.256 81.9367 99.7505 83.5445C99.7505 83.5445 99.6338 83.9271 99.5171 84.2836H98.8169C99.2319 82.9286 99.4328 82.3711 99.4328 82.3711C99.6079 81.8395 99.8089 81.2884 99.8089 81.1587C99.8089 81.0161 99.7505 80.9772 99.6533 80.9772C99.3615 80.9772 98.6808 81.632 98.1297 83.1685C98.1297 83.1685 97.8574 83.8946 97.7213 84.2901H97.0535C97.2869 83.5575 97.6629 82.4748 97.7926 82.0664C97.9352 81.632 97.9871 81.3532 97.9871 81.2041C97.9871 81.0615 97.9287 80.9772 97.8315 80.9772C97.6889 80.9772 97.462 81.1458 97.1054 81.7033L97.0276 81.6515C97.3842 80.9513 97.8769 80.6855 98.1492 80.6855C98.4409 80.6855 98.5576 80.8411 98.5576 81.1523C98.5576 81.4181 98.4863 81.7876 98.3566 82.2479H98.415C98.979 81.0809 99.556 80.6855 99.9774 80.6855C100.269 80.6855 100.425 80.8994 100.425 81.23C100.425 81.4051 100.315 81.7617 100.159 82.2544H100.211C100.846 81.0874 101.332 80.6919 101.76 80.6919C102.052 80.6919 102.253 80.9059 102.253 81.2365C102.253 81.5412 102.097 81.9173 101.864 82.5915C101.689 83.0972 101.488 83.7066 101.488 83.8557C101.488 83.966 101.52 84.0049 101.585 84.0049C101.858 84.0049 102.253 83.6159 102.499 83.2139L102.584 83.2528C102.285 83.7585 101.741 84.3679 101.183 84.3679" fill="white"/>
<path d="M104.866 80.679C105.371 80.679 105.631 80.9059 105.631 81.243C105.631 81.7422 105.125 82.1247 104.431 82.3516V82.3711C104.866 82.3192 105.404 82.6045 105.404 83.1167C105.404 83.8493 104.697 84.3549 103.919 84.3549C103.187 84.3549 102.869 83.8752 102.869 83.3241C102.869 82.0988 103.874 80.679 104.859 80.679M104.127 82.4878C104.01 82.4878 103.861 82.5137 103.653 82.5721C103.576 82.9027 103.543 83.2463 103.543 83.5316C103.543 83.9984 103.692 84.2447 103.978 84.2447C104.451 84.2447 104.807 83.7455 104.807 83.2658C104.807 82.7601 104.496 82.4943 104.127 82.4943M103.666 82.4878L103.9 82.4294C104.217 82.3452 104.431 82.2609 104.665 82.0275C104.924 81.7682 105.047 81.431 105.047 81.1523C105.047 80.9513 104.95 80.7957 104.775 80.7957C104.256 80.7957 103.861 81.6255 103.666 82.4878Z" fill="white"/>
<path d="M108.023 83.8298C107.718 84.154 107.284 84.3485 106.882 84.3485C106.26 84.3485 105.942 83.9011 105.923 83.1556C105.91 82.4619 106.188 81.6839 106.675 81.1847C106.986 80.8605 107.414 80.679 107.816 80.679C108.457 80.679 108.762 81.1587 108.762 81.9367C108.762 82.611 108.483 83.3436 108.023 83.8363M107.79 80.7762C107.491 80.7762 107.31 81.0291 107.167 81.2754C106.863 81.82 106.493 83.0389 106.506 83.6742C106.513 84.0632 106.629 84.2642 106.908 84.2642C107.206 84.2642 107.388 84.0049 107.53 83.7585C107.835 83.2204 108.185 82.0534 108.205 81.431C108.211 80.9902 108.088 80.7827 107.796 80.7827" fill="white"/>
<path d="M70.5048 91.9662C70.2909 91.9662 70.1936 91.8236 70.1936 91.6485C70.1936 91.5967 70.226 91.4994 70.239 91.467C70.2649 91.3892 70.3233 91.2985 70.3233 91.2596C70.3233 91.1429 70.2325 91.0845 70.0834 91.0845C69.8759 91.0845 69.6685 91.2207 69.474 91.4994C69.085 92.0764 68.7997 93.1137 68.7997 93.8528C68.7997 94.2548 69.0331 94.4363 69.273 94.4363C69.7917 94.4363 70.2066 93.9047 70.4076 93.5481L70.4919 93.6C70.2001 94.1575 69.7074 94.6503 68.9942 94.6503C68.4302 94.6503 68.119 94.1316 68.119 93.5092C68.119 92.7248 68.4756 92.044 68.9683 91.5448C69.3184 91.1882 69.8176 90.9808 70.1158 90.9808C70.4854 90.9808 70.8484 91.1558 70.8484 91.5902C70.8484 91.7912 70.7512 91.9727 70.5048 91.9727" fill="white"/>
<path d="M75.0301 89.6193L74.0706 93.4314C74.0122 93.6583 73.9798 93.8658 73.9798 93.9695C73.9798 94.3326 74.1549 94.4428 74.278 94.4882C74.3364 94.5076 74.5374 94.5336 74.6281 94.5401V94.5854H72.2618V94.5401C72.3396 94.5336 72.4109 94.5271 72.4887 94.5076C72.6378 94.4752 72.8064 94.3909 72.9295 94.2483C73.0981 94.0603 73.1759 93.7686 73.2796 93.3731L74.0122 90.4297C74.0446 90.2806 74.1873 89.7749 74.1873 89.6388C74.1873 89.5545 74.1678 89.4961 74.0965 89.4572C74.0057 89.4054 73.6881 89.3729 73.6103 89.3665V89.3276C73.8048 89.3211 74.1938 89.2433 74.5244 89.1849C74.7902 89.1331 75.0366 89.0618 75.1144 89.0618C75.1533 89.0618 75.1662 89.0747 75.1533 89.1201C75.1209 89.2433 75.069 89.4118 75.0171 89.6258" fill="white"/>
<path d="M76.4629 94.6956C75.6006 94.6956 75.3543 94.1964 75.3543 93.8853C75.3543 93.5741 75.5812 93.3796 75.821 93.3796C76.0609 93.3796 76.1971 93.5287 76.1971 93.7491C76.1971 93.8399 76.1711 93.9241 76.1322 94.0214C76.0739 94.164 76.048 94.2224 76.048 94.2742C76.048 94.4234 76.1841 94.5465 76.4629 94.5465C77.4678 94.5465 78.2782 92.9322 78.3884 91.9986H78.356C78.0383 92.4265 77.6169 92.6145 77.1501 92.6145C76.223 92.6145 75.9118 91.8236 75.9118 91.2985C75.9118 90.2806 76.5277 89.0034 77.9994 89.0034C79.0691 89.0034 79.5229 89.9629 79.5229 90.7409C79.5229 93.6194 77.578 94.6956 76.4694 94.6956M77.9994 89.1331C77.1695 89.1331 76.7092 90.1833 76.7092 91.5643C76.7092 92.0051 76.9361 92.3682 77.377 92.3682C78.1096 92.3682 78.7255 91.5059 78.7255 90.2547C78.7255 89.7036 78.4986 89.1331 77.9994 89.1331Z" fill="white"/>
<path d="M80.7483 94.6956C79.886 94.6956 79.6396 94.1964 79.6396 93.8853C79.6396 93.5741 79.8666 93.3796 80.1064 93.3796C80.3463 93.3796 80.4825 93.5287 80.4825 93.7491C80.4825 93.8399 80.4565 93.9241 80.4176 94.0214C80.3593 94.164 80.3334 94.2224 80.3334 94.2742C80.3334 94.4234 80.4695 94.5465 80.7483 94.5465C81.7532 94.5465 82.5636 92.9322 82.6738 91.9986H82.6414C82.3237 92.4265 81.9023 92.6145 81.4355 92.6145C80.5084 92.6145 80.1972 91.8236 80.1972 91.2985C80.1972 90.2806 80.8131 89.0034 82.2848 89.0034C83.3545 89.0034 83.8083 89.9629 83.8083 90.7409C83.8083 93.6194 81.8634 94.6956 80.7548 94.6956M82.2848 89.1331C81.4549 89.1331 80.9946 90.1833 80.9946 91.5643C80.9946 92.0051 81.2215 92.3682 81.6624 92.3682C82.395 92.3682 83.0109 91.5059 83.0109 90.2547C83.0109 89.7036 82.784 89.1331 82.2848 89.1331Z" fill="white"/>
<path d="M88.2947 89.2498C86.7971 90.7539 86.246 92.1283 85.5264 93.9241C85.2995 94.4752 85.105 94.6956 84.7808 94.6956C84.515 94.6956 84.3724 94.4558 84.3724 94.2159C84.3724 93.6843 85.1309 92.8479 85.5134 92.4265C86.1617 91.7004 86.8943 90.5788 87.5297 89.9046V89.8786H85.7209C85.0726 89.8786 84.8068 90.0602 84.4956 90.6048H84.4307L84.9429 88.8348H84.9948C85.0337 88.984 85.1115 89.1201 85.4421 89.1201H88.3336L88.3012 89.2562L88.2947 89.2498Z" fill="white"/>
<path d="M89.5654 93.8528C89.5654 92.6729 91.5039 92.5951 91.5039 91.5707C91.5039 91.3179 91.3288 91.1818 91.0825 91.1818C90.7324 91.1818 90.4342 91.3957 90.123 91.9403L90.0452 91.9014C90.3175 91.3503 90.6287 90.9743 91.2122 90.9743C91.7114 90.9743 92.055 91.2466 92.055 91.7004C92.055 92.8479 90.1943 92.9582 90.1943 93.9047C90.1943 94.2159 90.4017 94.4363 90.6935 94.4363C91.2122 94.4363 91.6271 93.9047 91.8281 93.5481L91.9123 93.6C91.6206 94.1575 91.1279 94.6503 90.4147 94.6503C89.9414 94.6503 89.5719 94.3585 89.5719 93.8593" fill="white"/>
<path d="M92.5412 94.7021C92.3013 94.7021 92.1003 94.5076 92.1003 94.2418C92.1003 93.976 92.3013 93.7815 92.5412 93.7815C92.7811 93.7815 92.9821 93.9501 92.9821 94.2418C92.9821 94.5336 92.7811 94.7021 92.5412 94.7021Z" fill="white"/>
<path d="M74.4207 25.6431H73.1305V25.9997H74.4207V25.6431Z" fill="white"/>
</svg>
